<?xml version="1.0" encoding="utf-8"?>
<!-- Generator: Adobe Illustrator 20.0.0, SVG Export Plug-In . SVG Version: 6.00 Build 0)  -->
<svg version="1.1" id="Layer_1" xmlns="http://www.w3.org/2000/svg" xmlns:xlink="http://www.w3.org/1999/xlink" x="0px" y="0px"
	 width="1048px" height="196px" viewBox="0 0 1048 196" style="enable-background:new 0 0 1048 196;" xml:space="preserve">
<style type="text/css">
	.st0{fill:#FCA902;}
	.st1{opacity:0.5;fill:url(#SVGID_1_);}
</style>
<g id="color">
	<g>
		<path class="st0" d="M1034.2,105.3c0.6-0.9,1-2.1,1-3.7c0-5.6-3-11.6-7.8-11.8h-0.1c-30.9,3.6-49.2,54.6-67.8,77.3
			c-12.6,13.1-26,12.6-24.9,2.4c0-0.3,0.1-0.6,0.1-0.9l11.4-63c1.1-6-2.9-11.7-8.9-12.8c-6-1.1-11.7,2.9-12.8,8.9l-11.7,64.6
			c-13.2,14.6-34.4,12.5-32.2-5.9l9.9-54.7c1.1-6-2.9-11.7-8.9-12.8c-3.9-0.7-7.7,0.8-10.2,3.5c0,0,0,0,0,0
			c-25.5,16.8-24.8,15.2-44.8,3.8l-0.1,0.2c-6.2-5.3-14.5-8.4-25.3-8.4c-29.1,0-47.7,23-51.7,51.4c-0.6,4.6-0.9,9-0.7,13.2
			c-14.1,23.3-35.3,25.4-33.8,12.9c0.1-0.9,0.2-1.6,0.3-2.3c0.1-0.4,0.2-0.8,0.3-1.2l22.7-124.8c1-5.7-2.8-11.2-8.5-12.3l-0.8-0.2
			c-5.7-1-11.2,2.8-12.3,8.5l-21.5,118.1c-14.1,24.5-36,26.8-34.6,14.2c0-0.3,0.1-0.6,0.1-0.9l11.4-63c1.1-6-2.9-11.7-8.9-12.8
			c-6-1.1-11.7,2.9-12.8,8.9l-11.7,64.6c-13.2,14.6-34.4,12.5-32.2-5.9l9.9-54.7c1.1-6-2.9-11.7-8.9-12.8c-3.9-0.7-7.7,0.8-10.2,3.5
			c0,0,0,0,0,0c-25.5,16.8-24.8,15.2-44.8,3.8l-0.1,0.2c-5.3-5-12.3-8-20.7-8c-8.7,0-16.9,2.1-24,11c0,0,0,0-0.1,0.1l11.3-62.2
			c1-5.8-2.8-11.3-8.5-12.3l-0.8-0.1c-5.8-1-11.3,2.8-12.3,8.5l-21.4,117.5c-0.1,0.1-0.1,0.2-0.2,0.3
			c-14.1,24.7-36.2,27.1-34.7,14.4c0-0.4,0.1-0.7,0.1-1l23.1-127.2c1.1-5.8-2.8-11.4-8.6-12.5l-0.5-0.1c-5.8-1.1-11.4,2.8-12.5,8.6
			l-12.4,68.3c-5.7-9-16.1-13.3-25.8-13.3c-9.8,0-18.4,3.5-25.4,9.8c-19.4,9.3-31.8,8.6-50.1-1.6c-6.2-5.5-14.7-8.7-25.6-8.7
			c-12.2,0-22.5,4-30.7,10.8c-18.5,8.7-30.7,7.9-48.2-1.6c-6.2-5.8-14.9-9.2-26.1-9.2c-11.6,0-21.6,3.7-29.6,9.9
			c-20.4,9.8-33,13.5-56.1,15.6l7.5-53.6c0.3-2.1-0.2-4.2-1.5-5.9c-1.3-1.7-3.1-2.8-5.2-3.1c-2.1-0.3-4.2,0.2-5.9,1.5
			c-1.7,1.3-2.8,3.1-3.1,5.1l-10.8,57.2c-2.9,0.1-5.7,0.1-8.4,0.1l10.9-55.1c0.4-2.1,0-4.2-1.2-6c-1.2-1.8-3-2.9-5.1-3.4
			c-2.1-0.4-4.2,0-6,1.2c-1.7,1.2-2.9,2.9-3.3,5l-13.8,56c-17.1-3.8-29.4-12.2-37.4-23c-8.9-12-10.6-28.2-4.7-44.5
			c4.9-13.5,14.8-22.7,28.4-26.8c20.6-6.1,47.1,0.9,71,18.8C159.1,67.5,197.7,66,228.7,35c3.1-2,5.1-5.4,5.1-9.3c0-6.1-4.9-11-11-11
			c-3.4,0-6.5,1.6-8.5,4c-0.3,0.3-0.6,0.5-0.9,0.8c-17.2,18.3-41.4,37.1-77,10.4c-29-21.8-62-34.7-88.8-26.8
			C28.3,8.9,11.8,23.5,4.8,42.6C-3.4,65,0.2,87.8,13.1,105c8.1,10.9,23.3,22.9,49.7,27.8l-12.2,49.3l0,0.2c-0.6,2.9,0,5.8,1.7,8.2
			c1.6,2.4,4.1,4,6.9,4.6c0.7,0.1,1.4,0.2,2.1,0.2c2.1,0,4.2-0.6,6.1-1.9c2.4-1.6,4-4.1,4.6-6.9l10.1-51.5c2.2,0.1,4.5,0.1,6.8,0.1
			c0.3,0,0.8,0,1.7-0.1l-9,47.7l0,0.2c-0.4,2.9,0.3,5.7,2.1,8.1c1.8,2.3,4.3,3.8,7.2,4.2c0.5,0.1,1,0.1,1.5,0.1
			c5.3,0,10-3.9,10.8-9.4l7.6-54.1c11.9-2.2,27.3-5.5,42.4-9.9c-3.2,6.6-5.3,13.9-6.4,21.6c-4,28.4,8.1,51.4,37.3,51.4
			c30.8,0,47.7-23,51.7-51.4c1.2-8.4,0.9-16.2-0.7-23.2c6.8,1.6,14.7,2.1,23.7,0.5c-3.5,6.8-5.8,14.5-7,22.7
			c-4,28.4,8.1,51.4,37.3,51.4c30.8,0,47.7-23,51.7-51.4c1.2-8.4,0.9-16.3-0.7-23.3c7.4,1.8,16.3,2.3,26.3,0.2
			c-3.2,6.8-5.5,14.6-6.9,23.3c-4.6,28.9,5.9,50.9,30.8,50.9c10.1,0,22.3-7.6,29.6-14.4c1.4,3.3,3.5,6.9,6.2,9.9
			c4.4,4.9,13.3,4.4,16,4.4c16.3-0.3,25.3-11.2,36.9-23.5c0,0,0,0.1,0,0.1c3.1,9.8,19,23.5,38,23.5c28.9,0,42.3-23,46.5-51.2
			c1.3-8.9,1-17.3-0.7-24.5c8.2,4.3,15.9,3.6,30.5-7.1l-9,49.8c0,0.2-0.1,0.5-0.1,0.7c0,0,0,0,0,0c-0.5,4.2-3,17.3,7.4,26.6
			c6.4,5.8,19.8,5.6,22.5,5.6c10.5-0.2,18.8-5.1,26.6-11.9c1.3,2.5,2.9,5,4.9,7.2c4.4,4.9,13.5,4.6,16.2,4.6
			c14.3-0.2,22.3-9.9,31.8-20.8c0.1,7.3,2.3,11.6,6,15.7c4.4,4.9,13.9,5,16.6,5c16-0.3,24.1-12.2,35.2-24.6
			c4.6,15.1,16.4,25.2,35.8,25.2c30.8,0,47.7-23,51.7-51.4c1.2-8.7,0.9-16.9-0.9-24.1c7.8,3.7,15.5,2.6,29.5-7.7l-9,49.8
			c0,0.2-0.1,0.5-0.1,0.7c0,0,0,0,0,0c-0.5,4.2-3,17.3,7.4,26.6c6.4,5.8,19.8,5.6,22.5,5.6c10.5-0.2,18.8-5.1,26.6-11.9
			c1.3,2.6,3,5.2,5.1,7.5c2.9,3.2,7.7,4.1,11.5,4.3l0,0c0.1,0,0.3,0,0.4,0c0.4,0,0.8,0,1.2,0c0.4,0,0.8,0,1.1,0c0.7,0,1.3,0,1.7,0
			c4.1-0.1,7.6-0.9,10.8-2.3c31.2-11.7,45.3-64.2,67.3-81.7c8.2,29.4,12.8,44.2,12.8,51.1c0,15.2-18.4,22.1-22.6,9.6
			c-0.3-4.9-4.4-8.8-9.5-8.8c-5.2,0-9.5,4.3-9.5,9.5c0,1.1,0.2,2.2,0.6,3.2c7.7,29.3,54.1,25,61.6-10.8
			C1050,149.5,1040.7,133.6,1034.2,105.3z M213.5,143.9c-2.1,19-12.1,34.3-26.5,34.3c-15.6,0-20.9-15.4-18.8-34.3
			c2.1-19,12.2-34.3,26.5-34.3C212.6,109.6,215.6,124.9,213.5,143.9z M318.5,143.9c-2.1,19-12.1,34.3-26.5,34.3
			c-15.6,0-20.9-15.4-18.8-34.3c2.1-19,12.2-34.3,26.5-34.3C317.6,109.6,320.6,124.9,318.5,143.9z M408.6,109.6
			c6.6,0,21.1,4.2,15.3,33.9c-4.2,21.2-13.5,32.4-24.2,32.3c-14.8-0.1-20.4-8.7-17.2-32.3C385.5,121.8,396.4,109.6,408.6,109.6z
			 M540.9,143.5c-4.2,21.2-13.5,32.3-24.2,32.3c-11.7,0-20.4-8.7-17.2-32.3c2.9-21.7,13.8-33.9,26-33.9
			C532.2,109.6,546.7,113.9,540.9,143.5z M816.5,143.9c-2.1,19-12.1,34.3-26.5,34.3c-15.6,0-20.9-15.4-18.8-34.3
			c2.1-19,12.2-34.3,26.5-34.3C815.6,109.6,818.6,124.9,816.5,143.9z"/>
	</g>
	<linearGradient id="SVGID_1_" gradientUnits="userSpaceOnUse" x1="71.0627" y1="137.0419" x2="66.3786" y2="161.3994">
		<stop  offset="0.2144" style="stop-color:#D68F00"/>
		<stop  offset="1" style="stop-color:#FFFFFF;stop-opacity:0"/>
	</linearGradient>
	<path class="st1" d="M82.9,130.8c-6.9-0.3-13.2-1.3-19-2.8l-7.7,30.9c6,1.3,13.2,3.1,20.5,3.6L82.9,130.8z"/>
	<g>
		<path class="st0" d="M88.9,135c-43.1,0-65.4-16-75.9-30C0.2,87.8-3.4,65,4.8,42.6c7-19.1,23.5-33.7,42.9-39.5
			c26.7-7.9,59.7,5,88.8,26.8c35.6,26.7,59.8,7.9,77-10.4c3.6-3.8,12.3-5.5,16.2-1.9c3.8,3.6,5.1,11.1,1.5,14.9
			c-31.3,33.4-71,35.6-107,8.6c-23.8-17.9-50.3-24.9-71-18.8c-13.6,4-23.5,13.3-28.4,26.8c-6,16.3-4.3,32.5,4.7,44.5
			c12.1,16.2,33.9,27,66.8,25c39-2.4,50.9-5.7,82.5-21.7c4.7-2.4,13.3,9.6,8.6,11.9C153.3,126.2,92.6,135,88.9,135z"/>
	</g>
</g>
</svg>
